{
  "accessors": [
    {
      "bufferView": 2,
      "componentType": 5126,
      "count": 52516,
      "max": [
        7.2855000495910645,
        9.3139305114746094,
        47.777233123779297
      ],
      "min": [
        -13.767561912536621,
        -11.807273864746094,
        0.29552078247070312
      ],
      "type": "VEC3"
    },
    {
      "bufferView": 2,
      "byteOffset": 630192,
      "componentType": 5126,
      "count": 52516,
      "max": [
        0.99998182058334351,
        0.9999849796295166,
        0.99999874830245972
      ],
      "min": [
        -0.99997818470001221,
        -0.99999523162841797,
        -0.99998176097869873
      ],
      "type": "VEC3"
    },
    {
      "bufferView": 3,
      "componentType": 5126,
      "count": 52516,
      "max": [
        1,
        0.99783146381378174,
        0.99999988079071045,
        1
      ],
      "min": [
        -1,
        -0.9956849217414856,
        -1,
        -1
      ],
      "type": "VEC4"
    },
    {
      "bufferView": 1,
      "componentType": 5126,
      "count": 52516,
      "max": [
        0.99950557947158813,
        0.98779284954071045
      ],
      "min": [
        0.00048828125,
        0.00049134029541164637
      ],
      "type": "VEC2"
    },
    {
      "bufferView": 0,
      "componentType": 5125,
      "count": 224976,
      "max": [
        52515
      ],
      "min": [
        0
      ],
      "type": "SCALAR"
    }
  ],
  "asset": {
    "extras": {
      "author": "Aupuma (https://sketchfab.com/aupuma)",
      "license": "CC-BY-4.0 (http://creativecommons.org/licenses/by/4.0/)",
      "source": "https://sketchfab.com/3d-models/ezio-auditore-figurine-a3e3b9d9a99e441ab0de59297bb4f266",
      "title": "Ezio Auditore Figurine"
    },
    "generator": "Sketchfab-9.34.0",
    "version": "2.0"
  },
  "bufferViews": [
    {
      "buffer": 0,
      "byteLength": 899904,
      "byteOffset": 0,
      "name": "floatBufferViews",
      "target": 34963
    },
    {
      "buffer": 0,
      "byteLength": 420128,
      "byteOffset": 899904,
      "byteStride": 8,
      "name": "floatBufferViews",
      "target": 34962
    },
    {
      "buffer": 0,
      "byteLength": 1260384,
      "byteOffset": 1320032,
      "byteStride": 12,
      "name": "floatBufferViews",
      "target": 34962
    },
    {
      "buffer": 0,
      "byteLength": 840256,
      "byteOffset": 2580416,
      "byteStride": 16,
      "name": "floatBufferViews",
      "target": 34962
    }
  ],
  "buffers": [
    {
      "byteLength": 3420672,
      "uri": "scene.bin"
    }
  ],
  "images": [
    {
      "uri": "textures/tex_u1_v1_baseColor.jpeg"
    },
    {
      "uri": "textures/tex_u1_v1_normal.png"
    }
  ],
  "materials": [
    {
      "doubleSided": true,
      "name": "tex_u1_v1",
      "normalTexture": {
        "index": 1,
        "scale": 1,
        "texCoord": 0
      },
      "pbrMetallicRoughness": {
        "baseColorFactor": [
          1,
          1,
          1,
          1
        ],
        "baseColorTexture": {
          "index": 0,
          "texCoord": 0
        },
        "metallicFactor": 0,
        "roughnessFactor": 1
      }
    }
  ],
  "meshes": [
    {
      "primitives": [
        {
          "attributes": {
            "NORMAL": 1,
            "POSITION": 0,
            "TANGENT": 2,
            "TEXCOORD_0": 3
          },
          "indices": 4,
          "material": 0,
          "mode": 4
        }
      ]
    }
  ],
  "nodes": [
    {
      "children": [
        1
      ],
      "name": "RootNode (gltf orientation matrix)",
      "rotation": [
        -0.70710678118654746,
        -0,
        -0,
        0.70710678118654757
      ]
    },
    {
      "children": [
        2
      ],
      "matrix": [
        0.0081627986377342254,
        -4.9982728104328248e-19,
        -8.2865302038831121e-06,
        0,
        4.9982755112777845e-19,
        0.008162803016602993,
        0,
        0,
        8.2865302038831121e-06,
        -5.074036280233737e-22,
        0.0081627986377342254,
        0,
        -0.024402359500527382,
        -2.2204460492503131e-16,
        -0.0032778114546090364,
        1
      ],
      "name": "RootNode (model correction matrix)"
    },
    {
      "children": [
        3
      ],
      "name": "model.obj.cleaner.materialmerger.gles"
    },
    {
      "mesh": 0,
      "name": ""
    }
  ],
  "samplers": [
    {
      "magFilter": 9729,
      "minFilter": 9987,
      "wrapS": 10497,
      "wrapT": 10497
    }
  ],
  "scene": 0,
  "scenes": [
    {
      "name": "OSG_Scene",
      "nodes": [
        0
      ]
    }
  ],
  "textures": [
    {
      "sampler": 0,
      "source": 0
    },
    {
      "sampler": 0,
      "source": 1
    }
  ]
}

